<svg width="527" height="93" viewBox="0 0 527 93" fill="none" xmlns="http://www.w3.org/2000/svg">
<path d="M0 74.3611V0H8.86265V74.3611H0Z" fill="#F27B42"/>
<path d="M64.5574 23.4288H73.42V74.3611H64.5574V65.6007C60.143 72.3238 53.7253 75.6853 45.3041 75.6853C38.1732 75.6853 32.095 73.1048 27.0694 67.9436C22.0439 62.7146 19.5311 56.365 19.5311 48.895C19.5311 41.4249 22.0439 35.1093 27.0694 29.9482C32.095 24.7191 38.1732 22.1046 45.3041 22.1046C53.7253 22.1046 60.143 25.4661 64.5574 32.1892V23.4288ZM46.4246 67.1287C51.586 67.1287 55.8985 65.397 59.362 61.9336C62.8256 58.4023 64.5574 54.0561 64.5574 48.895C64.5574 43.7338 62.8256 39.4216 59.362 35.9582C55.8985 32.4269 51.586 30.6612 46.4246 30.6612C41.3311 30.6612 37.0526 32.4269 33.5891 35.9582C30.1255 39.4216 28.3937 43.7338 28.3937 48.895C28.3937 54.0561 30.1255 58.4023 33.5891 61.9336C37.0526 65.397 41.3311 67.1287 46.4246 67.1287Z" fill="#F27B42"/>
<path d="M94.3884 37.1805C94.3884 39.1499 95.3732 40.7458 97.3427 41.9682C99.3121 43.1226 101.689 44.0734 104.474 44.8204C107.258 45.4995 110.042 46.3144 112.827 47.2651C115.611 48.148 117.988 49.7099 119.958 51.9509C121.927 54.124 122.912 56.9423 122.912 60.4057C122.912 65.0235 121.112 68.7246 117.513 71.5089C113.981 74.2932 109.431 75.6853 103.862 75.6853C98.9046 75.6853 94.6601 74.5988 91.1286 72.4257C87.5971 70.2526 85.0844 67.3664 83.5903 63.7672L91.2305 59.387C92.0454 61.8318 93.5735 63.7672 95.8146 65.1933C98.0557 66.6194 100.738 67.3324 103.862 67.3324C106.783 67.3324 109.193 66.7892 111.095 65.7026C112.997 64.5481 113.947 62.7825 113.947 60.4057C113.947 58.4363 112.963 56.8744 110.993 55.7199C109.024 54.4975 106.647 53.5468 103.862 52.8677C101.078 52.1207 98.2934 51.2718 95.509 50.3211C92.7246 49.3703 90.3476 47.8084 88.3781 45.6353C86.4087 43.4622 85.4239 40.6779 85.4239 37.2824C85.4239 32.8683 87.1217 29.2351 90.5174 26.3829C93.981 23.5307 98.2934 22.1046 103.455 22.1046C107.598 22.1046 111.265 23.0553 114.457 24.9568C117.717 26.7904 120.161 29.3709 121.791 32.6985L114.355 36.875C112.521 32.5287 108.888 30.3556 103.455 30.3556C100.942 30.3556 98.8028 30.9668 97.037 32.1892C95.2713 33.3437 94.3884 35.0074 94.3884 37.1805Z" fill="#F27B42"/>
<path d="M159.124 31.9855H145.575V59.5907C145.575 62.1034 146.051 63.903 147.002 64.9896C148.02 66.0082 149.548 66.5515 151.586 66.6194C153.623 66.6194 156.136 66.5515 159.124 66.4157V74.3611C151.382 75.3797 145.711 74.7686 142.112 72.5275C138.513 70.2186 136.713 65.9063 136.713 59.5907V31.9855H126.628V23.4288H136.713V11.8163L145.575 9.1678V23.4288H159.124V31.9855Z" fill="#F27B42"/>
<path d="M225.841 22.0027C231.682 22.0027 236.368 23.9382 239.899 27.809C243.431 31.612 245.197 36.7052 245.197 43.0887V74.3611H229.916V44.4129C229.916 41.8324 229.271 39.7951 227.981 38.3011C226.758 36.807 224.959 36.06 222.582 36.06C220.069 36.06 218.099 36.9089 216.673 38.6067C215.315 40.3044 214.636 42.6473 214.636 45.6353V74.3611H199.355V44.4129C199.355 41.8324 198.71 39.7951 197.42 38.3011C196.197 36.807 194.398 36.06 192.021 36.06C189.508 36.06 187.539 36.9089 186.112 38.6067C184.754 40.3044 184.075 42.6473 184.075 45.6353V74.3611H168.795V23.4288H184.075V28.1146C186.859 24.04 191.41 22.0027 197.725 22.0027C203.634 22.0027 208.082 24.2438 211.07 28.7258C214.194 24.2438 219.118 22.0027 225.841 22.0027Z" fill="#F27B42"/>
<path d="M269.7 16.2983C267.935 18.064 265.795 18.9468 263.282 18.9468C260.77 18.9468 258.596 18.064 256.763 16.2983C254.997 14.4648 254.114 12.2917 254.114 9.77899C254.114 7.26634 254.997 5.12718 256.763 3.36153C258.596 1.52796 260.77 0.611184 263.282 0.611184C265.795 0.611184 267.935 1.52796 269.7 3.36153C271.534 5.12718 272.451 7.26634 272.451 9.77899C272.451 12.2917 271.534 14.4648 269.7 16.2983ZM255.642 74.3611V23.4288H270.923V74.3611H255.642Z" fill="#F27B42"/>
<path d="M282.104 74.3611V0H297.385V74.3611H282.104Z" fill="#F27B42"/>
<path d="M322.217 55.0068C323.983 59.7605 328.058 62.1374 334.441 62.1374C338.584 62.1374 341.844 60.8471 344.221 58.2665L356.445 65.2952C351.42 72.2899 344.017 75.7872 334.238 75.7872C325.681 75.7872 318.822 73.2406 313.66 68.1474C308.567 63.0541 306.02 56.6367 306.02 48.895C306.02 41.2212 308.533 34.8377 313.558 29.7444C318.652 24.5833 325.171 22.0027 333.117 22.0027C340.52 22.0027 346.666 24.5833 351.556 29.7444C356.513 34.8377 358.992 41.2212 358.992 48.895C358.992 51.0681 358.788 53.1054 358.381 55.0068H322.217ZM321.912 43.598H343.813C342.319 38.2331 338.72 35.5507 333.015 35.5507C327.107 35.5507 323.406 38.2331 321.912 43.598Z" fill="#F27B42"/>
</svg>
